<svg data-v-423bf9ae="" xmlns="http://www.w3.org/2000/svg" viewBox="0 0 558 90" class="iconLeft"><g data-v-423bf9ae="" id="a5826ba2-42be-4822-9eed-44f55420142d" fill="black" transform="matrix(6.659267425537109,0,0,6.659267425537109,106.33534240722656,-8.973359107971191)"><path d="M6.23 6.39L6.23 8.52L5.56 8.52Q5.53 7.70 5.08 7.30Q4.62 6.90 3.82 6.90L3.82 6.90Q3.34 6.90 2.95 7.07Q2.57 7.25 2.31 7.57Q2.04 7.89 1.90 8.35Q1.76 8.82 1.76 9.40L1.76 9.40Q1.76 9.99 1.91 10.43Q2.05 10.87 2.32 11.20Q2.59 11.53 2.97 11.71Q3.36 11.89 3.83 11.89L3.83 11.89Q4.52 11.89 4.98 11.55Q5.44 11.22 5.63 10.55L5.63 10.55L6.43 10.68Q6.32 11.16 6.08 11.52Q5.84 11.89 5.50 12.11Q5.15 12.34 4.70 12.47Q4.25 12.61 3.71 12.61L3.71 12.61Q2.99 12.61 2.41 12.38Q1.83 12.15 1.42 11.75Q1.00 11.35 0.78 10.76Q0.55 10.17 0.55 9.45L0.55 9.45Q0.55 8.76 0.77 8.17Q0.99 7.58 1.39 7.14Q1.79 6.71 2.34 6.45Q2.89 6.19 3.56 6.19L3.56 6.19Q3.83 6.19 4.10 6.22Q4.37 6.25 4.61 6.34Q4.85 6.42 5.06 6.56Q5.27 6.71 5.43 6.92L5.43 6.92L5.61 6.38Q5.63 6.38 5.73 6.38Q5.82 6.38 5.92 6.38Q6.02 6.38 6.11 6.39Q6.21 6.39 6.23 6.39L6.23 6.39ZM12.61 11.46L12.61 8.83Q12.61 8.33 12.55 7.96Q12.50 7.59 12.36 7.35Q12.22 7.12 11.98 7.01Q11.74 6.90 11.35 6.90L11.35 6.90Q10.98 6.90 10.66 7.01Q10.34 7.13 10.09 7.31Q9.84 7.49 9.66 7.69Q9.47 7.90 9.37 8.07L9.37 8.07L9.37 11.56Q9.37 11.67 9.41 11.73Q9.46 11.79 9.58 11.82Q9.69 11.85 9.90 11.85Q10.10 11.85 10.40 11.85L10.40 11.85L10.40 12.46Q10.21 12.46 10.02 12.46Q9.84 12.46 9.64 12.46Q9.44 12.46 9.22 12.46Q9.00 12.46 8.74 12.45L8.74 12.45Q8.50 12.45 8.30 12.45Q8.09 12.46 7.91 12.46Q7.72 12.46 7.54 12.46Q7.36 12.46 7.18 12.46L7.18 12.46L7.18 11.85Q7.56 11.85 7.77 11.84Q7.98 11.82 8.08 11.78Q8.18 11.74 8.20 11.68Q8.22 11.61 8.22 11.52L8.22 11.52L8.22 4.51Q8.22 4.41 8.15 4.35Q8.08 4.29 7.95 4.27Q7.81 4.25 7.63 4.24Q7.44 4.24 7.22 4.24L7.22 4.24L7.22 3.62Q7.34 3.62 7.48 3.63Q7.61 3.63 7.79 3.63L7.79 3.63Q8.16 3.63 8.55 3.62Q8.94 3.61 9.36 3.60L9.36 3.60Q9.36 3.99 9.36 4.45Q9.37 4.91 9.37 5.38Q9.37 5.86 9.37 6.32Q9.37 6.78 9.37 7.18L9.37 7.18Q9.86 6.67 10.46 6.43Q11.05 6.19 11.78 6.19L11.78 6.19Q12.41 6.19 12.80 6.38Q13.19 6.58 13.41 6.98Q13.62 7.37 13.69 7.96Q13.76 8.54 13.76 9.33L13.76 9.33L13.76 11.44Q13.76 11.60 13.81 11.68Q13.86 11.76 13.97 11.80Q14.08 11.84 14.27 11.85Q14.45 11.85 14.73 11.85L14.73 11.85L14.73 12.46Q14.55 12.46 14.37 12.46Q14.20 12.46 14.01 12.46Q13.83 12.46 13.62 12.46Q13.41 12.46 13.17 12.45L13.17 12.45Q12.67 12.45 12.31 12.46Q11.94 12.46 11.57 12.46L11.57 12.46L11.57 11.85Q11.87 11.85 12.07 11.83Q12.27 11.82 12.39 11.78Q12.51 11.74 12.56 11.67Q12.61 11.59 12.61 11.46L12.61 11.46ZM21.89 9.49L21.48 9.61L16.64 9.61Q16.65 10.16 16.81 10.58Q16.97 10.99 17.27 11.28Q17.58 11.57 18.00 11.73Q18.42 11.89 18.93 11.89L18.93 11.89Q19.65 11.89 20.17 11.59Q20.70 11.30 20.99 10.68L20.99 10.68L21.81 10.81Q21.50 11.68 20.71 12.14Q19.92 12.61 18.77 12.61L18.77 12.61Q18.00 12.61 17.38 12.37Q16.77 12.14 16.34 11.72Q15.91 11.29 15.69 10.72Q15.46 10.15 15.46 9.42L15.46 9.42Q15.46 8.68 15.70 8.09Q15.93 7.50 16.35 7.08Q16.78 6.65 17.37 6.42Q17.97 6.19 18.70 6.19L18.70 6.19Q19.44 6.19 20.03 6.41Q20.62 6.63 21.03 7.05Q21.44 7.48 21.66 8.09Q21.88 8.70 21.89 9.49L21.89 9.49ZM16.65 9.00L20.78 9.00Q20.70 7.96 20.17 7.43Q19.63 6.90 18.72 6.90L18.72 6.90Q18.29 6.90 17.93 7.04Q17.58 7.19 17.31 7.45Q17.04 7.72 16.87 8.10Q16.71 8.48 16.65 9.00L16.65 9.00ZM28.66 6.39L28.66 8.52L27.99 8.52Q27.95 7.70 27.50 7.30Q27.04 6.90 26.24 6.90L26.24 6.90Q25.76 6.90 25.38 7.07Q24.99 7.25 24.73 7.57Q24.47 7.89 24.33 8.35Q24.19 8.82 24.19 9.40L24.19 9.40Q24.19 9.99 24.33 10.43Q24.47 10.87 24.74 11.20Q25.01 11.53 25.40 11.71Q25.78 11.89 26.26 11.89L26.26 11.89Q26.94 11.89 27.40 11.55Q27.86 11.22 28.05 10.55L28.05 10.55L28.85 10.68Q28.74 11.16 28.50 11.52Q28.27 11.89 27.92 12.11Q27.57 12.34 27.12 12.47Q26.67 12.61 26.13 12.61L26.13 12.61Q25.41 12.61 24.83 12.38Q24.25 12.15 23.84 11.75Q23.43 11.35 23.20 10.76Q22.98 10.17 22.98 9.45L22.98 9.45Q22.98 8.76 23.19 8.17Q23.41 7.58 23.81 7.14Q24.21 6.71 24.76 6.45Q25.31 6.19 25.98 6.19L25.98 6.19Q26.26 6.19 26.52 6.22Q26.79 6.25 27.03 6.34Q27.28 6.42 27.48 6.56Q27.69 6.71 27.86 6.92L27.86 6.92L28.03 6.38Q28.05 6.38 28.15 6.38Q28.24 6.38 28.34 6.38Q28.44 6.38 28.54 6.39Q28.63 6.39 28.66 6.39L28.66 6.39ZM29.61 12.46L29.61 11.85Q29.89 11.85 30.10 11.84Q30.30 11.83 30.42 11.78Q30.55 11.74 30.60 11.65Q30.66 11.55 30.66 11.39L30.66 11.39L30.66 4.58Q30.66 4.45 30.60 4.39Q30.54 4.32 30.41 4.29Q30.28 4.26 30.09 4.25Q29.90 4.25 29.64 4.25L29.64 4.25L29.64 3.63Q30.01 3.63 30.30 3.63Q30.58 3.63 30.83 3.63Q31.08 3.62 31.32 3.62Q31.55 3.61 31.80 3.60L31.80 3.60L31.80 9.07L33.65 7.68Q34.34 7.19 34.34 7.05L34.34 7.05Q34.34 7.01 34.28 6.99Q34.23 6.97 34.14 6.96Q34.04 6.95 33.92 6.95Q33.79 6.95 33.65 6.95L33.65 6.95L33.67 6.34Q34.03 6.35 34.31 6.35Q34.58 6.36 34.82 6.36L34.82 6.36Q35.20 6.36 35.60 6.35Q36.00 6.35 36.52 6.34L36.52 6.34L36.52 6.95Q36.24 6.95 36.09 6.96Q35.93 6.97 35.78 7.03Q35.64 7.09 35.44 7.23Q35.24 7.36 34.88 7.63L34.88 7.63L32.96 9.05L35.63 11.50Q35.88 11.73 36.07 11.80Q36.26 11.86 36.49 11.86L36.49 11.86Q36.57 11.86 36.64 11.86Q36.72 11.85 36.81 11.85L36.81 11.85L36.81 12.46Q36.48 12.46 36.15 12.46Q35.82 12.45 35.44 12.45L35.44 12.45Q35.18 12.45 34.97 12.45Q34.75 12.46 34.55 12.46Q34.34 12.46 34.14 12.46Q33.94 12.46 33.73 12.46L33.73 12.46L33.73 11.85Q34.09 11.85 34.24 11.84Q34.40 11.83 34.40 11.74L34.40 11.74Q34.40 11.67 34.30 11.56Q34.20 11.46 34.04 11.31L34.04 11.31L32.09 9.52L31.80 9.71L31.79 11.40Q31.79 11.54 31.83 11.63Q31.88 11.72 31.99 11.77Q32.11 11.82 32.32 11.84Q32.53 11.85 32.87 11.85L32.87 11.85L32.87 12.46Q32.51 12.46 32.15 12.46Q31.78 12.46 31.31 12.45L31.31 12.45Q31.27 12.45 31.07 12.45Q30.86 12.46 30.59 12.46Q30.32 12.46 30.05 12.46Q29.77 12.46 29.61 12.46L29.61 12.46ZM42.38 11.48L42.38 8.82Q42.38 8.37 42.34 8.01Q42.29 7.65 42.16 7.40Q42.03 7.14 41.79 7.02Q41.56 6.90 41.17 6.90L41.17 6.90Q40.84 6.90 40.58 6.99Q40.32 7.08 40.10 7.23Q39.88 7.38 39.69 7.57Q39.49 7.76 39.28 7.99L39.28 7.99L39.28 10.87Q39.28 11.26 39.28 11.46Q39.27 11.67 39.36 11.75Q39.46 11.84 39.67 11.85Q39.89 11.85 40.30 11.85L40.30 11.85L40.30 12.46Q40.12 12.46 39.95 12.46Q39.78 12.46 39.59 12.46Q39.41 12.46 39.20 12.46Q39.00 12.46 38.75 12.45L38.75 12.45Q38.25 12.45 37.87 12.46Q37.49 12.46 37.11 12.46L37.11 12.46L37.11 11.85Q37.48 11.85 37.69 11.83Q37.89 11.81 37.99 11.76Q38.08 11.72 38.10 11.65Q38.12 11.57 38.12 11.47L38.12 11.47L38.12 7.27Q38.12 7.16 38.07 7.09Q38.01 7.03 37.90 7.00Q37.78 6.97 37.59 6.96Q37.41 6.95 37.14 6.95L37.14 6.95L37.14 6.34Q37.28 6.34 37.41 6.35Q37.54 6.35 37.73 6.35L37.73 6.35Q38.10 6.35 38.47 6.34Q38.83 6.33 39.20 6.32L39.20 6.32L39.20 7.33Q39.66 6.79 40.27 6.49Q40.88 6.20 41.61 6.19L41.61 6.19Q42.22 6.19 42.69 6.49Q43.17 6.79 43.41 7.36L43.41 7.36Q43.91 6.80 44.52 6.49Q45.14 6.19 45.83 6.19L45.83 6.19Q46.46 6.20 46.84 6.41Q47.23 6.61 47.44 6.98Q47.65 7.35 47.72 7.87Q47.79 8.39 47.80 9.03L47.80 9.03L47.80 11.54Q47.80 11.66 47.84 11.71Q47.89 11.77 48.01 11.80Q48.12 11.83 48.30 11.83Q48.49 11.83 48.76 11.84L48.76 11.84L48.76 12.46Q48.38 12.46 48.00 12.46Q47.62 12.45 47.13 12.45L47.13 12.45Q46.89 12.45 46.69 12.45Q46.49 12.46 46.31 12.46Q46.14 12.46 45.96 12.46Q45.79 12.46 45.62 12.46L45.62 12.46L45.62 11.84Q45.91 11.83 46.11 11.82Q46.31 11.81 46.42 11.77Q46.54 11.74 46.59 11.67Q46.64 11.59 46.64 11.46L46.64 11.46L46.64 8.82Q46.64 8.33 46.59 7.97Q46.55 7.61 46.41 7.37Q46.28 7.12 46.04 7.01Q45.80 6.90 45.42 6.90L45.42 6.90Q45.08 6.90 44.82 7.00Q44.55 7.11 44.32 7.26Q44.10 7.42 43.91 7.60Q43.72 7.79 43.57 8.00L43.57 8.00Q43.55 8.25 43.54 8.50Q43.54 8.76 43.54 9.02L43.54 9.02L43.54 11.52Q43.54 11.64 43.58 11.71Q43.63 11.77 43.73 11.80Q43.84 11.83 44.03 11.84Q44.21 11.85 44.50 11.85L44.50 11.85L44.50 12.46Q44.33 12.46 44.17 12.46Q44.00 12.46 43.83 12.46Q43.65 12.46 43.46 12.46Q43.26 12.46 43.02 12.45L43.02 12.45Q42.77 12.45 42.55 12.45Q42.33 12.46 42.14 12.46Q41.94 12.46 41.75 12.46Q41.56 12.46 41.37 12.46L41.37 12.46L41.37 11.85Q41.66 11.85 41.85 11.84Q42.05 11.83 42.17 11.79Q42.29 11.75 42.33 11.68Q42.38 11.60 42.38 11.48L42.38 11.48ZM55.10 8.37L55.10 10.93Q55.10 11.29 55.13 11.47Q55.15 11.66 55.22 11.75Q55.29 11.83 55.42 11.84Q55.54 11.85 55.75 11.85L55.75 11.85L56.05 11.85L56.05 12.46Q55.51 12.46 54.98 12.47Q54.46 12.48 54.00 12.49L54.00 12.49L54.00 11.55Q53.59 12.08 53.02 12.34Q52.46 12.61 51.71 12.61L51.71 12.61Q51.21 12.61 50.82 12.47Q50.42 12.33 50.14 12.08Q49.86 11.83 49.71 11.49Q49.55 11.15 49.55 10.74L49.55 10.74Q49.55 10.30 49.73 9.94Q49.91 9.58 50.25 9.33Q50.59 9.08 51.08 8.94Q51.57 8.80 52.20 8.80L52.20 8.80Q52.63 8.80 53.07 8.86Q53.50 8.93 53.96 9.04L53.96 9.04L53.96 8.06Q53.96 7.44 53.54 7.11Q53.13 6.78 52.27 6.78L52.27 6.78Q51.56 6.78 51.15 7.06Q50.74 7.33 50.61 7.92L50.61 7.92L49.98 7.84L50.07 6.64Q50.50 6.44 51.09 6.31Q51.67 6.19 52.40 6.19L52.40 6.19Q53.13 6.19 53.64 6.32Q54.15 6.45 54.48 6.71Q54.80 6.98 54.95 7.39Q55.10 7.81 55.10 8.37L55.10 8.37ZM52.46 9.37L52.46 9.37Q52.05 9.37 51.72 9.46Q51.39 9.56 51.16 9.73Q50.93 9.90 50.81 10.14Q50.69 10.39 50.69 10.71L50.69 10.71Q50.69 10.99 50.79 11.20Q50.89 11.42 51.07 11.57Q51.25 11.72 51.50 11.81Q51.75 11.89 52.06 11.89L52.06 11.89Q52.38 11.89 52.72 11.79Q53.06 11.68 53.33 11.49Q53.61 11.29 53.78 11.00Q53.96 10.70 53.96 10.28L53.96 10.28L53.96 9.61Q53.55 9.50 53.18 9.43Q52.81 9.37 52.46 9.37ZM57.71 4.79L58.58 4.61L58.58 6.34L60.22 6.34L60.22 6.95L58.58 6.95L58.58 10.38Q58.58 10.73 58.59 11.00Q58.60 11.28 58.66 11.48Q58.71 11.68 58.84 11.78Q58.97 11.89 59.22 11.89L59.22 11.89Q59.32 11.89 59.41 11.85Q59.51 11.81 59.58 11.72Q59.65 11.63 59.69 11.49Q59.74 11.35 59.74 11.15L59.74 11.15L60.36 11.09Q60.36 11.49 60.25 11.78Q60.14 12.07 59.95 12.25Q59.76 12.43 59.51 12.52Q59.25 12.61 58.97 12.61L58.97 12.61Q58.50 12.61 58.20 12.45Q57.90 12.29 57.73 12.01Q57.57 11.74 57.50 11.33Q57.44 10.93 57.44 10.44L57.44 10.44L57.44 6.95L56.32 6.95L56.32 6.41Q56.49 6.41 56.70 6.39Q56.92 6.37 57.11 6.36L57.11 6.36Q57.33 6.34 57.56 6.32L57.56 6.32Q57.57 6.27 57.58 6.14Q57.59 6.02 57.61 5.85Q57.62 5.68 57.64 5.50Q57.66 5.32 57.67 5.16Q57.69 5.01 57.70 4.90Q57.71 4.80 57.71 4.79L57.71 4.79ZM67.68 9.49L67.27 9.61L62.43 9.61Q62.44 10.16 62.60 10.58Q62.77 10.99 63.07 11.28Q63.37 11.57 63.79 11.73Q64.21 11.89 64.72 11.89L64.72 11.89Q65.44 11.89 65.97 11.59Q66.49 11.30 66.78 10.68L66.78 10.68L67.61 10.81Q67.29 11.68 66.50 12.14Q65.71 12.61 64.57 12.61L64.57 12.61Q63.79 12.61 63.18 12.37Q62.56 12.14 62.14 11.72Q61.71 11.29 61.48 10.72Q61.26 10.15 61.26 9.42L61.26 9.42Q61.26 8.68 61.49 8.09Q61.72 7.50 62.15 7.08Q62.57 6.65 63.17 6.42Q63.77 6.19 64.50 6.19L64.50 6.19Q65.24 6.19 65.82 6.41Q66.41 6.63 66.82 7.05Q67.23 7.48 67.45 8.09Q67.68 8.70 67.68 9.49L67.68 9.49ZM62.44 9.00L66.58 9.00Q66.49 7.96 65.96 7.43Q65.43 6.90 64.51 6.90L64.51 6.90Q64.08 6.90 63.72 7.04Q63.37 7.19 63.10 7.45Q62.84 7.72 62.67 8.10Q62.50 8.48 62.44 9.00L62.44 9.00Z"></path></g><g data-v-423bf9ae="" id="24d98cb6-9d64-455a-b373-f9efb1105a59" transform="matrix(1.0249868631362915,0,0,1.0249868631362915,-6.151347637176514,-6.152347087860107)" stroke="none" fill="black"><path d="M6.098 13.73a7.634 7.634 0 0 1 7.632-7.633h72.54a7.634 7.634 0 0 1 7.632 7.633v72.539a7.634 7.634 0 0 1-7.633 7.633H13.73a7.634 7.634 0 0 1-7.632-7.633zm7.632-1.762c-.972 0-1.761.79-1.761 1.762v72.539c0 .973.789 1.762 1.762 1.762H86.27c.972 0 1.761-.79 1.761-1.762V13.73c0-.973-.789-1.762-1.762-1.762z"></path><path d="M6.098 13.73a7.634 7.634 0 0 1 7.632-7.633H45.3a7.634 7.634 0 0 1 7.637 7.633V45.3a7.635 7.635 0 0 1-7.637 7.637H13.73A7.635 7.635 0 0 1 6.099 45.3zm7.632-1.762c-.972 0-1.761.79-1.761 1.762V45.3c0 .977.789 1.762 1.762 1.762H45.3a1.76 1.76 0 0 0 1.761-1.762V13.73c0-.973-.789-1.762-1.762-1.762z"></path><path d="M9.031 54.699c0-2.598 2.106-4.7 4.7-4.7H45.3C47.897 50 50 52.102 50 54.7v31.57c0 2.594-2.102 4.7-4.7 4.7H13.73a4.7 4.7 0 0 1-4.699-4.7zM50 13.73c0-2.594 2.102-4.7 4.7-4.7h31.57c2.593 0 4.698 2.106 4.698 4.7V45.3c0 2.598-2.105 4.7-4.699 4.7H54.7A4.696 4.696 0 0 1 50 45.3z"></path><path d="M47.062 54.699a7.635 7.635 0 0 1 7.637-7.637h31.57A7.635 7.635 0 0 1 93.9 54.7v31.57a7.634 7.634 0 0 1-7.632 7.633h-31.57a7.634 7.634 0 0 1-7.637-7.633zm7.637-1.762a1.76 1.76 0 0 0-1.762 1.762v31.57c0 .973.79 1.762 1.762 1.762h31.57c.972 0 1.761-.79 1.761-1.762v-31.57a1.76 1.76 0 0 0-1.761-1.762z"></path></g></svg>